<?xml version="1.0" standalone="no"?>
<!DOCTYPE svg PUBLIC "-//W3C//DTD SVG 20010904//EN"
 "http://www.w3.org/TR/2001/REC-SVG-20010904/DTD/svg10.dtd">
<svg version="1.0" xmlns="http://www.w3.org/2000/svg"
 width="512.000000pt" height="512.000000pt" viewBox="0 0 512.000000 512.000000"
 preserveAspectRatio="xMidYMid meet">
<metadata>
Created by potrace 1.14, written by Peter Selinger 2001-2017
</metadata>
<g transform="translate(0.000000,512.000000) scale(0.100000,-0.100000)"
fill="#000000" stroke="none">
<path d="M866 4393 c-79 -23 -135 -97 -140 -185 -6 -93 61 -181 154 -205 51
-13 1319 -9 1351 4 43 18 91 65 110 108 48 104 -4 233 -110 278 -40 16 -1309
16 -1365 0z"/>
<path d="M2937 4399 c-53 -8 -118 -57 -141 -104 -13 -26 -20 -60 -20 -100 0
-75 35 -133 103 -173 l46 -27 665 0 665 0 45 25 c24 14 58 45 75 68 26 38 30
52 30 112 0 60 -4 74 -30 112 -17 23 -51 54 -75 68 l-45 25 -640 0 c-352 0
-658 -3 -678 -6z"/>
<path d="M1252 3577 c-231 -29 -432 -203 -503 -437 l-23 -75 0 -895 c0 -492 3
-915 6 -940 30 -205 189 -399 393 -475 92 -35 126 -38 415 -40 223 -1 277 2
344 17 117 27 208 78 296 168 100 101 153 205 176 345 12 72 8 1775 -4 1838
-47 244 -247 445 -492 493 -50 10 -533 11 -608 1z m573 -416 c40 -16 83 -58
107 -105 20 -39 20 -55 20 -906 1 -851 0 -866 -20 -905 -11 -22 -33 -52 -49
-67 -50 -48 -95 -54 -358 -53 -233 1 -242 2 -283 25 -45 25 -87 78 -101 126
-4 16 -7 416 -7 889 l1 860 24 42 c28 48 85 92 132 102 56 11 501 4 534 -8z"/>
<path d="M3304 3579 c-226 -29 -418 -189 -502 -421 l-27 -73 0 -315 c0 -298 1
-319 22 -385 71 -223 271 -399 492 -433 77 -12 585 -6 641 7 182 44 340 171
419 336 54 114 56 135 56 475 0 280 -2 321 -18 370 -62 184 -170 309 -332 385
-114 53 -154 58 -440 59 -143 1 -283 -1 -311 -5z m581 -426 c50 -26 80 -57 99
-105 23 -55 24 -510 1 -565 -20 -48 -50 -80 -100 -106 -37 -19 -57 -21 -278
-22 -205 -1 -246 1 -289 17 -65 22 -85 41 -114 103 -22 47 -23 59 -23 290 0
233 0 242 24 292 27 59 83 103 143 112 20 4 140 6 267 5 212 -1 233 -2 270
-21z"/>
</g>
</svg>
